    <svg width="30" height="35" viewBox="0 0 52 63" fill="none" xmlns="http://www.w3.org/2000/svg">
    <path d="M8.28272 16.8803C7.78272 16.8803 7.38101 17.3007 7.38101 17.8201C7.38101 18.3306 7.78272 18.7381 8.28272 18.7381C8.78144 18.7381 9.18158 18.3306 9.18158 17.8201C9.18158 17.3007 8.78144 16.8803 8.28272 16.8803Z" fill="#231F20"/>
    <path d="M8.28272 15.2717C8.74272 15.2717 9.11086 14.8916 9.11086 14.4227C9.11086 13.9533 8.74272 13.5723 8.28272 13.5723C7.82372 13.5723 7.45172 13.9533 7.45172 14.4227C7.45172 14.8916 7.82372 15.2717 8.28272 15.2717Z" fill="#231F20"/>
    <path d="M21.4627 13.9817C20.482 13.9817 20.25 15.5353 20.25 16.2444C20.25 16.9541 20.482 18.5263 21.4627 18.5263C22.4449 18.5263 22.6793 16.9541 22.6793 16.2444C22.6793 15.5353 22.4449 13.9817 21.4627 13.9817Z" fill="#231F20"/>
    <path d="M15.9398 25.0946H17.4093L17.1064 24.5877L15.9398 25.0946Z" fill="#231F20"/>
    <path d="M41.4284 36.8431C43.8303 37.9637 43.8303 40.5633 43.8303 39.8871C43.8303 36.0136 42.5534 36.2873 42.6056 33.841C42.656 31.3966 45.2737 31.608 45.2737 31.608C46.2997 31.6229 46.6084 32.2509 46.6084 32.2509C46.6084 32.2509 46.0923 32.1416 45.8831 32.4199C45.8831 32.4199 45.1056 32.9844 46.5006 36.309C46.782 36.9786 48.0221 39.3164 46.5251 41.0061C45.465 42.2003 43.7759 41.7569 43.7759 41.7569C43.6696 42.3974 43.616 42.7166 43.616 42.7166H44.8437C45.9671 42.7717 46.0193 44 46.0193 44V49.181L45.1637 50.0343H42.334C42.2827 48.7524 43.9374 48.2189 43.9374 48.2189V45.9757H41.3183C39.9307 45.8691 39.1851 43.1981 39.1851 43.1981L38.1696 43.306C38.116 43.4667 39.6107 46.1891 39.6107 46.1891L36.5661 49.073V49.928H33.2566C33.0966 49.1251 34.6963 48.4317 34.6963 48.4317L36.7797 46.1891C37.046 45.8997 36.86 45.6057 36.4991 45.4867C36.1026 45.3566 35.7849 45.2657 35.3399 45.0953C34.8883 44.9234 32.9873 43.733 33.7909 41.4354C34.5771 39.1787 37.2074 40.1014 37.2074 39.8334C37.2074 39.5686 35.8199 36.3633 35.8199 36.3633L36.9417 34.7056L35.604 35.5611L32.081 34.9199C31.7074 37.9117 30.3176 37.1631 30.3176 37.1631V34.9199C30.3176 34.9199 30.3697 33.4437 31.7074 32.998C33.3086 32.4644 34.4307 32.7837 34.9106 32.6764C35.392 32.5694 35.2529 32.1437 35.2529 32.1437L33.1486 32.1966L31.2797 30.6474L30.264 30.5403C28.3941 30.2211 29.09 28.7783 29.09 28.7783H31.761C32.773 28.7783 35.392 30.701 35.392 30.701C35.392 30.701 35.7663 28.5649 33.7909 27.8171C31.8131 27.0701 32.241 26.4831 32.241 26.4831L34.1084 27.1229C34.1084 27.1229 34.3243 26.9094 34.0051 26.428C33.8317 26.1697 32.346 25.6273 32.346 25.6273C31.1719 25.2003 31.5451 24.2397 31.5451 24.2397L33.6309 24.4519C34.1084 24.0261 34.0549 23.9719 34.7507 23.8654C35.444 23.7583 36.514 24.7204 36.4039 24.3989C36.2997 24.0791 36.1919 23.117 36.0861 22.1557C35.9909 21.2926 38.8094 25.3074 38.8094 25.3074C42.4404 32.1966 41.4284 36.8431 41.4284 36.8431V36.8431ZM31.3667 40.6534V44.6697C31.3667 44.6697 31.4337 46.762 29.668 48.5284C27.8331 50.3626 25.7804 50.1667 25.7491 50.1639C25.718 50.1667 23.6666 50.3626 21.8296 48.5284C20.0623 46.762 20.1294 44.6697 20.1294 44.6697V40.6534C20.1294 40.6534 19.6309 40.5226 19.6071 40.032C19.5736 39.4109 20.2283 39.5097 20.2283 39.5097H21.5357C21.4709 40.884 22.3227 40.7197 22.3227 40.7197C23.2357 40.7517 23.0409 39.5097 23.0409 39.5097H28.4576C28.4576 39.5097 28.2581 40.7517 29.1754 40.7197C29.1754 40.7197 30.0251 40.884 29.962 39.5097H31.27C31.27 39.5097 31.9226 39.4109 31.889 40.032C31.8651 40.5226 31.3667 40.6534 31.3667 40.6534ZM15.6724 36.3633C15.6724 36.3633 14.2846 39.5686 14.2846 39.8334C14.2846 40.1014 16.9149 39.1787 17.7021 41.4354C18.5034 43.733 16.6023 44.9234 16.1546 45.0953C15.7057 45.2657 15.388 45.3566 14.9937 45.4867C14.6343 45.6057 14.4469 45.8997 14.7124 46.1891L16.7943 48.4317C16.7943 48.4317 18.3977 49.1251 18.2357 49.928H14.9246V49.073L11.8799 46.1891C11.8799 46.1891 13.3754 43.4667 13.3233 43.306L12.3091 43.1981C12.3091 43.1981 11.56 45.8691 10.1724 45.9757H7.55472V48.2189C7.55472 48.2189 9.21029 48.7524 9.15458 50.0343H6.32714L5.47143 49.181V44C5.47143 44 5.52572 42.7717 6.64715 42.7166H7.87314C7.87314 42.7166 7.82115 42.3974 7.71472 41.7569C7.71472 41.7569 6.02572 42.2003 4.96558 41.0061C3.46843 39.3164 4.70886 36.9786 4.99143 36.309C6.38515 32.9844 5.609 32.4199 5.609 32.4199C5.40086 32.1416 4.88372 32.2509 4.88372 32.2509C4.88372 32.2509 5.19086 31.6229 6.21772 31.608C6.21772 31.608 8.83458 31.3966 8.88672 33.841C8.93872 36.2873 7.66114 36.0136 7.66114 39.8871C7.66114 40.5633 7.66115 37.9637 10.066 36.8431C10.066 36.8431 9.05258 32.1966 12.6834 25.3074C12.6834 25.3074 15.5011 21.2926 15.4044 22.1557C15.2989 23.117 15.1909 24.0791 15.0867 24.3989C14.9789 24.7204 16.0466 23.7583 16.74 23.8654C17.4343 23.9719 17.3821 24.0261 17.8634 24.4519L19.9454 24.2397C19.9454 24.2397 20.3189 25.2003 19.1456 25.6273C19.1456 25.6273 17.6589 26.1697 17.4879 26.428C17.1701 26.9094 17.3821 27.1229 17.3821 27.1229L19.2513 26.4831C19.2513 26.4831 19.6776 27.0701 17.7021 27.8171C15.7244 28.5649 16.1003 30.701 16.1003 30.701C16.1003 30.701 18.7177 28.7783 19.7311 28.7783H22.4023C22.4023 28.7783 23.0964 30.2211 21.2289 30.5403L20.2111 30.6474L18.3434 32.1966L16.2377 32.1437C16.2377 32.1437 16.1003 32.5694 16.5786 32.6764C17.06 32.7837 18.182 32.4644 19.7833 32.998C21.1226 33.4437 21.173 34.9199 21.173 34.9199V37.1631C21.173 37.1631 19.7833 37.9117 19.4111 34.9199L15.8867 35.5611L14.5489 34.7056L15.6724 36.3633ZM4.112 20.1247H2.20729V14.2044H1.409L1.72515 12.5241H4.112V20.1247ZM5.71543 14.3629C5.71543 12.9239 6.993 12.2133 8.28386 12.2133C9.57115 12.2133 10.8509 12.9239 10.8509 14.3629C10.8509 15.1627 10.3524 15.8411 9.66272 16.0719V16.092C10.5629 16.3919 11.162 17.08 11.162 18.069C11.162 19.6284 9.58229 20.348 8.28386 20.348C6.982 20.348 5.40286 19.6284 5.40286 18.069C5.40286 17.08 6.00343 16.3919 6.90372 16.092V16.0719C6.21543 15.8411 5.71543 15.1627 5.71543 14.3629V14.3629ZM12.1627 14.4126V12.5927H18.4513L14.2439 20.1247H11.8837L15.2206 14.4126H12.1627ZM21.4633 12.3017C23.6397 12.3017 24.5696 14.3509 24.5696 16.2541C24.5696 18.1581 23.6486 20.2064 21.4633 20.2064C19.2794 20.2064 18.3569 18.1581 18.3569 16.2541C18.3569 14.3509 19.2884 12.3017 21.4633 12.3017ZM25.7154 23.5057C25.728 23.5057 25.7357 23.5183 25.749 23.5199C25.7616 23.5183 25.769 23.5057 25.7826 23.5057C26.0683 23.5057 26.3026 23.7393 26.3026 24.0264C26.3026 24.2193 26.1969 24.3867 26.0444 24.4773L26.0429 24.4856L26.0391 34.8606L29.4669 38.3411V39.4469H28.952L28.9484 38.5651L25.749 35.3017L22.5496 38.5651L22.5457 39.4469H22.0301V38.3411L25.4587 34.8606L25.4551 24.4856L25.4529 24.4773C25.3003 24.3867 25.1947 24.2193 25.1947 24.0264C25.1947 23.7393 25.429 23.5057 25.7154 23.5057V23.5057ZM51.4683 6.73L36.8683 20.1334H33.1771L51.4686 3.35629L51.4693 0.000430516L29.4864 20.1347H25.7953L47.9424 0.000430516H44.252L25.7949 16.7776V13.4211L40.5606 0H36.8686L25.7964 10.0671V6.71071L33.1774 0H29.4869L25.7957 3.35514V0H0V40.9986C0 56.05 25.7371 62.3643 25.7371 62.3643C25.7371 62.3643 51.47 56.051 51.47 40.9986L51.4693 20.1343H47.9433L51.47 16.7791V13.4236L44.2529 20.1343H40.5616L51.47 10.0671L51.4693 6.73086" fill="#231F20"/>
    <path d="M35.5513 25.0946H34.0818L34.3854 24.5877L35.5513 25.0946Z" fill="#231F20"/>
    </svg>