<?xml version="1.0" standalone="no"?>
<!DOCTYPE svg PUBLIC "-//W3C//DTD SVG 20010904//EN"
 "http://www.w3.org/TR/2001/REC-SVG-20010904/DTD/svg10.dtd">
<svg version="1.0" xmlns="http://www.w3.org/2000/svg"
 width="1120.000000pt" height="1120.000000pt" viewBox="0 0 1120.000000 1120.000000"
 preserveAspectRatio="xMidYMid meet">
<metadata>
Created by potrace 1.14, written by Peter Selinger 2001-2017
</metadata>
<g transform="translate(0.000000,1120.000000) scale(0.100000,-0.100000)"
fill="#000000" stroke="none">
<path d="M979 11178 c-1 -66 2 -7392 4 -7440 1 -32 4 -58 7 -58 3 0 6 -19 6
-43 1 -23 5 -60 9 -82 10 -55 32 -165 39 -192 3 -13 8 -31 10 -40 16 -67 75
-239 106 -308 41 -94 115 -243 125 -255 8 -8 13 -17 12 -20 -1 -3 14 -30 33
-60 19 -30 37 -59 40 -65 16 -32 167 -244 185 -260 6 -5 18 -20 26 -32 27 -39
118 -142 219 -248 95 -100 333 -319 367 -339 8 -4 23 -16 32 -25 36 -33 280
-220 322 -246 9 -5 71 -47 138 -93 67 -45 126 -82 131 -82 6 0 10 -4 10 -10 0
-5 5 -10 10 -10 6 0 38 -18 71 -40 33 -22 62 -40 65 -40 2 0 21 -11 42 -23 20
-13 57 -35 82 -49 25 -14 63 -35 85 -48 93 -53 160 -88 335 -176 174 -87 377
-184 386 -184 2 0 32 -13 66 -28 35 -16 131 -57 213 -91 183 -77 171 -72 275
-111 47 -18 94 -36 105 -40 11 -4 47 -18 80 -30 33 -12 68 -26 78 -31 10 -5
22 -7 26 -4 5 2 14 -2 21 -10 7 -8 23 -15 36 -15 14 0 32 -4 42 -10 14 -8 248
-88 277 -95 34 -7 71 -19 80 -24 6 -3 15 -6 22 -7 13 -2 79 -22 103 -31 8 -3
20 -7 27 -9 6 -1 62 -16 124 -33 85 -24 115 -29 125 -20 8 6 14 9 14 6 0 -3
30 3 68 14 37 11 74 22 82 24 58 14 280 83 405 125 83 28 157 53 165 55 8 2
16 4 18 5 1 2 7 4 12 5 6 1 13 4 18 5 4 1 10 2 15 1 4 0 7 4 7 10 0 5 4 8 8 5
5 -3 20 1 35 9 15 8 27 12 27 10 0 -2 31 9 70 25 39 16 70 26 70 23 0 -3 6 -1
13 4 6 5 41 20 77 33 36 13 69 27 75 32 5 4 15 8 22 8 7 0 32 9 56 19 23 11
98 43 167 71 69 29 134 57 145 63 11 6 25 12 30 13 10 2 56 23 230 104 50 23
99 46 110 51 11 5 27 13 35 18 8 5 53 28 100 52 198 98 433 227 438 241 2 4 9
8 14 8 14 0 75 38 318 195 74 48 137 91 138 96 2 5 8 9 13 9 12 0 269 190 288
213 7 9 17 17 22 17 4 0 19 10 31 23 13 12 39 35 58 50 79 63 161 139 285 263
161 162 172 174 279 309 48 61 91 115 96 122 18 22 137 208 156 243 10 19 21
37 24 40 3 3 17 28 31 55 14 28 31 59 37 70 16 28 94 205 96 219 1 6 4 16 7
21 4 6 14 35 23 65 10 30 20 62 23 70 3 8 7 20 8 25 2 6 11 39 20 75 21 80 20
75 30 135 5 28 10 52 10 55 1 3 4 25 8 50 4 25 10 63 14 85 4 22 8 921 10
1997 l4 1958 -312 2 -311 3 63 62 c35 34 92 88 125 120 209 198 352 334 390
371 l44 42 0 295 c0 162 -1 295 -3 295 -2 0 -24 -19 -48 -42 -25 -24 -90 -84
-145 -135 -55 -51 -120 -111 -145 -135 -26 -24 -92 -86 -149 -138 -56 -52
-119 -111 -140 -130 -45 -42 -263 -245 -301 -280 -47 -43 -250 -233 -303 -282
l-51 -48 -328 0 -328 0 34 33 c19 17 79 73 133 122 54 50 116 107 137 128 21
20 40 37 42 37 2 0 31 27 65 60 34 33 63 60 65 60 2 0 28 24 58 53 30 28 98
93 152 142 54 50 113 104 130 120 18 17 72 66 120 110 48 44 102 94 119 110
18 17 82 75 142 130 59 55 122 113 139 129 16 15 70 65 119 110 49 44 104 95
122 111 17 17 78 73 135 125 56 52 127 119 158 147 31 29 59 53 64 53 4 0 7
135 7 301 -1 327 2 308 -50 259 -37 -34 -207 -191 -236 -217 -27 -25 -157
-144 -262 -241 -19 -17 -71 -65 -114 -105 -44 -39 -97 -88 -118 -107 -74 -69
-233 -215 -260 -240 -15 -14 -67 -61 -115 -105 -48 -44 -97 -89 -109 -100 -25
-23 -202 -185 -250 -230 -18 -16 -72 -66 -121 -110 -48 -44 -102 -93 -120
-110 -115 -108 -187 -175 -189 -175 -2 0 -23 -19 -48 -42 -25 -24 -77 -72
-117 -108 -40 -36 -91 -83 -114 -105 -24 -22 -85 -78 -136 -125 -52 -47 -105
-96 -120 -110 -14 -14 -47 -44 -73 -67 l-47 -42 -320 -1 c-177 0 -321 3 -321
8 0 5 17 23 37 41 21 18 68 61 104 95 36 33 98 89 136 124 39 35 90 82 115
105 24 23 84 78 133 122 48 44 110 100 136 125 26 25 74 68 106 97 32 28 79
71 104 95 26 23 86 79 134 123 48 44 107 99 131 121 25 23 78 72 119 109 41
37 93 84 115 105 22 20 76 70 121 111 45 41 103 94 128 117 25 24 77 71 114
105 38 34 85 78 106 97 21 19 77 71 126 115 48 44 109 100 135 125 26 25 68
63 92 85 62 54 326 297 398 365 14 14 60 55 101 91 41 37 97 88 126 115 28 27
91 85 139 129 48 44 102 94 119 110 18 17 62 57 99 89 l66 60 0 293 c0 161 -3
293 -7 293 -5 0 -33 -23 -63 -51 -132 -121 -239 -220 -289 -265 -29 -27 -75
-69 -101 -94 -27 -25 -83 -76 -126 -115 -42 -38 -93 -85 -113 -104 -20 -18
-70 -64 -111 -101 -41 -37 -89 -81 -105 -96 -33 -31 -91 -84 -245 -224 -51
-47 -107 -98 -125 -115 -37 -34 -215 -197 -256 -235 -16 -14 -65 -59 -110
-100 -94 -86 -106 -97 -224 -205 -48 -44 -106 -97 -129 -119 -35 -33 -131
-120 -225 -205 -34 -31 -203 -186 -251 -231 -35 -32 -164 -150 -230 -210 -35
-31 -214 -196 -250 -230 -53 -49 -207 -190 -228 -209 -12 -10 -65 -58 -118
-107 -54 -49 -109 -100 -124 -114 -15 -14 -72 -65 -125 -115 -54 -49 -106 -97
-115 -105 -9 -8 -57 -52 -106 -97 -49 -45 -100 -91 -113 -102 -23 -20 -34 -21
-350 -21 l-326 0 56 53 c31 28 89 81 129 117 40 36 87 79 105 95 17 17 64 59
104 95 40 36 89 81 110 100 20 19 72 67 115 105 95 85 111 100 217 196 46 42
108 99 138 125 29 27 68 63 86 79 17 17 69 64 115 105 46 41 95 86 110 100 14
14 61 57 104 95 43 39 93 84 111 100 18 17 67 61 109 99 42 38 89 81 104 95
27 25 179 164 248 226 70 63 178 161 204 185 15 14 62 57 105 95 91 82 82 74
165 150 36 33 105 96 154 140 49 44 105 96 126 115 20 19 70 64 111 100 40 36
87 79 104 95 18 17 69 64 115 105 46 41 95 86 110 100 15 14 67 61 115 105 49
44 100 91 114 103 14 13 59 54 100 90 40 37 90 83 111 102 20 19 70 64 110
100 41 36 85 76 100 90 14 14 49 46 78 73 l51 47 -328 0 -328 0 -35 -32 c-19
-18 -75 -69 -123 -113 -49 -44 -103 -93 -120 -110 -18 -16 -54 -50 -81 -74
-70 -62 -223 -201 -257 -233 -16 -15 -61 -56 -101 -91 -39 -36 -83 -75 -97
-88 -14 -13 -60 -55 -103 -94 -43 -38 -95 -86 -116 -105 -77 -71 -137 -126
-186 -170 -72 -65 -232 -210 -270 -245 -18 -16 -67 -61 -110 -100 -42 -38 -92
-83 -109 -100 -18 -16 -54 -50 -81 -73 -54 -48 -186 -168 -273 -248 -90 -83
-114 -105 -192 -174 -40 -36 -97 -88 -126 -116 -29 -28 -53 -49 -53 -48 0 2
-13 -9 -28 -24 -16 -15 -53 -49 -84 -77 -30 -27 -97 -88 -148 -135 -52 -47
-106 -96 -121 -110 -15 -14 -58 -53 -96 -86 -37 -34 -80 -72 -94 -85 -14 -13
-63 -58 -108 -99 -46 -41 -101 -92 -123 -112 -22 -21 -41 -38 -42 -38 -1 0 -2
134 -2 298 l1 297 45 41 c25 23 64 59 88 80 24 20 62 55 85 77 23 21 73 67
110 101 38 33 84 75 101 91 18 17 72 66 121 110 49 44 114 103 144 132 31 28
74 67 96 86 22 20 60 54 85 76 24 23 48 41 52 41 4 0 8 7 8 15 0 8 4 15 9 15
4 0 32 23 61 50 29 28 55 50 57 50 3 0 47 41 160 147 13 12 23 21 23 19 0 -2
27 23 60 56 33 32 62 58 64 58 3 0 25 19 49 43 24 23 64 60 88 82 25 22 87 78
138 125 86 77 151 137 236 215 17 15 63 57 104 94 41 36 87 77 101 91 15 14
67 61 115 105 49 44 101 91 116 105 15 14 62 57 105 95 43 39 105 96 138 127
l61 58 -327 0 -327 0 -53 -49 c-84 -78 -122 -111 -130 -111 -5 0 -8 -7 -8 -15
0 -8 -4 -15 -8 -15 -5 0 -27 -17 -49 -37 -23 -21 -61 -55 -84 -77 -24 -21 -84
-75 -133 -120 -49 -44 -114 -103 -144 -131 -30 -27 -67 -61 -82 -75 -127 -115
-222 -201 -260 -235 -24 -22 -62 -57 -83 -77 -21 -21 -40 -38 -42 -38 -3 0
-32 -26 -65 -58 -33 -33 -60 -58 -60 -56 0 2 -13 -9 -28 -24 -16 -15 -68 -63
-117 -107 -49 -44 -116 -105 -149 -135 -108 -99 -175 -160 -280 -255 -92 -83
-112 -101 -162 -148 l-30 -27 0 298 1 298 25 24 c14 14 70 66 125 115 55 50
119 107 142 129 84 77 107 96 115 96 4 0 8 7 8 15 0 8 4 15 8 15 8 0 20 10
171 148 46 42 92 84 101 92 9 8 59 53 110 100 51 47 102 93 114 103 20 17 168
153 226 207 73 67 135 120 142 120 4 0 8 7 8 15 0 13 -42 15 -321 15 -243 0
-323 -3 -333 -12 -7 -7 -50 -47 -96 -88 -46 -41 -93 -84 -105 -95 -11 -11 -43
-40 -71 -65 -100 -91 -249 -226 -303 -277 -31 -29 -58 -53 -61 -53 -4 0 -6
133 -5 295 l0 295 -2292 0 -2293 0 -1 -22z m1599 -2160 c6 -1 12 -4 12 -7 0
-3 11 -7 24 -7 42 -3 139 -57 186 -104 100 -100 131 -239 84 -371 -22 -61 -89
-139 -138 -163 -39 -18 -55 -36 -33 -36 26 0 95 -42 142 -87 47 -44 90 -122
99 -181 2 -19 7 -36 10 -40 3 -3 1 -11 -5 -18 -6 -7 -6 -14 0 -18 9 -6 8 -18
-11 -96 -36 -144 -199 -269 -388 -298 -133 -20 -280 2 -398 59 -73 36 -165
123 -183 174 -7 19 -16 35 -19 35 -4 0 -7 6 -8 13 -1 16 -10 71 -12 75 -2 3
-2 71 0 75 1 1 3 16 5 34 4 42 39 117 71 156 42 50 139 117 170 117 13 0 14 3
4 15 -6 8 -21 17 -33 21 -27 9 -107 83 -107 101 0 7 -4 13 -8 13 -15 0 -44 99
-46 160 -6 137 80 277 204 331 74 32 95 40 128 45 20 3 39 7 40 9 4 3 182 -2
210 -7z m2322 -15 c14 -3 34 -8 44 -10 26 -5 134 -60 155 -79 56 -52 101 -99
101 -105 0 -4 6 -14 13 -21 40 -39 92 -183 125 -343 9 -46 8 -223 -2 -275 -4
-19 -9 -48 -12 -65 -15 -92 -81 -245 -129 -300 -78 -89 -96 -105 -163 -140
-83 -43 -137 -55 -252 -51 -153 4 -242 40 -340 136 -50 49 -126 167 -135 210
-1 3 -11 37 -23 75 -12 39 -24 84 -27 100 -11 53 -13 249 -4 305 5 30 11 69
14 87 6 39 39 133 68 193 28 58 78 124 130 172 105 95 299 145 437 111z
m-3197 -32 c4 -1 7 -304 7 -674 l0 -673 -170 -1 -170 -1 -2 527 -3 526 -68 -1
c-67 -1 -68 -1 -63 25 5 30 27 151 30 166 2 6 6 31 10 57 5 30 14 48 24 50 14
3 385 2 405 -1z m2544 -14 c4 -5 -53 -118 -99 -192 -10 -16 -21 -36 -25 -44
-4 -8 -33 -61 -65 -118 -32 -56 -58 -107 -58 -113 0 -5 -4 -10 -9 -10 -5 0
-11 -8 -14 -17 -6 -18 -60 -118 -89 -163 -8 -14 -31 -54 -50 -90 -19 -36 -88
-159 -153 -275 -65 -115 -124 -225 -132 -242 -7 -18 -18 -33 -23 -33 -6 0 -10
-7 -10 -15 0 -8 -3 -16 -7 -17 -5 0 -101 -2 -215 -3 l-206 -3 23 42 c13 22 82
142 154 265 72 123 131 227 131 232 0 5 5 9 10 9 6 0 10 4 10 9 0 10 103 188
120 208 5 7 10 14 10 17 0 3 29 55 65 115 35 61 63 112 62 112 -2 2 -121 9
-142 9 -5 0 -36 -1 -67 -3 -32 -1 -58 1 -58 6 0 4 -5 5 -12 1 -17 -11 -108
-11 -108 -1 0 5 -5 5 -12 1 -18 -11 -119 -10 -127 1 -13 17 -20 55 -10 55 6 0
5 8 -1 20 -6 11 -7 20 -3 20 4 0 6 38 3 85 -6 98 -1 126 22 134 21 7 1077 5
1085 -2z m-532 -1704 c-9 -98 -41 -339 -51 -378 l-6 -26 38 16 c21 9 41 19 44
23 7 10 100 53 130 60 39 10 153 3 161 -9 3 -6 9 -10 13 -10 19 3 28 -2 67
-38 30 -27 50 -38 68 -36 14 2 53 6 86 10 33 3 83 8 110 11 28 2 73 6 101 9
51 5 52 5 56 -24 7 -46 -16 -119 -48 -152 -23 -25 -102 -71 -124 -74 -14 -1
-190 -78 -224 -98 -22 -12 -44 -31 -50 -42 -6 -11 -15 -23 -19 -26 -10 -7 -12
-77 -4 -85 4 -4 129 33 177 53 8 3 20 7 25 9 6 1 37 12 69 23 36 13 63 18 69
12 22 -22 -27 -92 -102 -144 -25 -17 -48 -31 -51 -31 -3 1 -32 -11 -65 -26
-33 -15 -77 -33 -97 -40 -21 -8 -38 -17 -38 -21 0 -4 -9 -10 -19 -14 -50 -15
-136 -126 -168 -215 -22 -63 -37 -208 -22 -231 4 -7 39 11 100 53 52 35 130
85 174 111 44 26 87 52 95 57 25 16 120 60 124 57 1 -1 9 3 17 9 8 6 28 15 44
19 17 5 37 10 45 12 8 3 129 6 268 7 l252 1 12 -40 c33 -118 -22 -213 -147
-255 -52 -18 -59 -19 -130 -24 -33 -3 -60 -5 -60 -6 0 -1 -15 -3 -33 -6 -28
-3 -105 -57 -152 -104 -3 -3 -21 -17 -40 -32 -19 -14 -51 -40 -70 -58 -75 -68
-100 -83 -146 -85 -24 -1 -44 3 -44 7 0 5 -5 6 -10 3 -11 -7 -32 -7 -184 -2
-95 3 -104 -1 -87 -46 17 -44 40 -49 229 -49 346 -1 520 -70 600 -240 40 -84
45 -122 44 -328 -1 -240 0 -237 -14 -237 -49 -3 -67 -3 -96 3 -52 10 -125 92
-141 159 -2 6 -6 15 -11 20 -9 12 -28 90 -45 183 -7 41 -9 43 -39 38 -61 -11
-141 -25 -166 -30 -13 -3 -42 -8 -65 -11 -22 -3 -48 -8 -58 -11 -11 -4 -29 -7
-40 -9 -21 -2 -114 -19 -167 -30 -86 -18 -99 -16 -155 20 -31 19 -59 35 -64
35 -5 0 -11 3 -13 8 -7 17 -83 62 -87 51 -2 -6 0 -14 5 -18 15 -10 174 -249
174 -260 0 -6 -11 -34 -24 -63 -26 -58 -129 -302 -151 -358 -7 -19 -23 -60
-35 -90 -12 -30 -24 -67 -27 -82 l-4 -28 118 0 c167 0 203 -5 290 -46 131 -62
219 -211 228 -385 1 -31 5 -62 9 -68 4 -6 3 -11 -1 -11 -5 0 -9 -8 -9 -17 -2
-28 -14 -85 -22 -97 -3 -6 -7 -16 -8 -22 -4 -27 -62 -112 -109 -160 -81 -83
-136 -115 -275 -159 -131 -41 -158 -56 -165 -96 -5 -26 6 -49 43 -87 41 -44
243 -261 295 -318 26 -28 59 -57 74 -65 140 -71 233 -163 233 -229 l0 -26
-295 0 -295 0 0 76 0 77 -141 134 c-78 74 -161 152 -184 174 -24 22 -81 77
-128 121 l-86 82 31 58 c183 345 220 422 216 443 -3 14 -37 21 -127 24 l-45 2
-21 -55 c-12 -30 -22 -58 -23 -63 -3 -20 -68 -147 -96 -187 -62 -91 -104 -132
-165 -161 -43 -21 -60 -22 -293 -22 l-247 0 0 -61 c-1 -34 -1 -70 -1 -81 0
-95 -1 -119 -6 -126 -3 -5 -2 -9 3 -9 4 0 7 -27 6 -60 l-3 -59 64 -31 c35 -16
87 -50 114 -75 49 -44 105 -136 105 -173 0 -50 14 -47 -253 -47 l-249 0 -76
77 -76 76 3 488 c3 482 3 490 25 535 23 49 69 93 112 112 14 5 78 11 141 13
63 1 123 3 133 3 13 1 17 6 13 19 -3 9 -7 28 -9 42 -3 14 -8 44 -12 67 -6 38
-9 41 -28 34 -26 -9 -178 -7 -227 3 -48 10 -152 56 -167 75 -7 8 -13 12 -13 8
0 -10 -77 72 -106 114 -14 21 -37 70 -51 110 -22 60 -26 92 -26 169 0 110 6
180 14 180 3 0 6 6 6 13 0 21 34 131 45 145 6 6 8 12 5 12 -6 0 34 96 61 145
9 17 15 30 13 30 -3 0 4 18 32 90 18 46 47 136 53 160 1 6 9 38 18 71 31 118
37 242 15 296 -22 55 -50 73 -123 80 l-29 3 29 28 c42 43 84 62 154 72 56 8
86 9 98 1 7 -4 12 -2 12 4 0 6 3 9 8 7 4 -3 23 -8 42 -11 82 -14 98 -18 155
-45 78 -37 164 -119 170 -161 0 -3 6 -14 12 -25 20 -36 30 -119 27 -221 -2
-55 -5 -108 -8 -119 -21 -87 -38 -141 -47 -149 -5 -6 -9 -16 -9 -23 0 -6 -13
-40 -29 -75 -37 -80 -62 -146 -67 -178 -3 -14 -9 -41 -14 -60 -25 -95 -47
-350 -33 -373 3 -5 16 21 28 59 52 166 179 323 332 411 54 32 61 39 56 62 -13
74 -18 160 -17 291 2 185 7 236 50 515 2 11 5 31 9 45 3 14 7 34 10 45 2 11 6
31 10 45 3 14 7 34 9 45 20 101 129 447 156 497 6 10 10 23 10 29 0 6 16 47
36 92 19 45 43 98 51 117 37 85 155 321 166 332 7 7 35 45 62 83 27 39 53 75
57 80 5 6 53 69 108 140 112 145 203 245 224 245 9 0 13 -10 11 -27z m3726 4
c23 -22 97 -104 129 -143 30 -36 205 -269 229 -304 79 -114 108 -160 120 -193
8 -20 18 -37 23 -37 4 0 8 -5 8 -12 0 -6 11 -34 24 -62 63 -136 75 -162 78
-176 2 -8 7 -18 11 -21 5 -3 10 -12 11 -20 3 -15 10 -34 34 -89 8 -19 16 -42
18 -50 2 -8 17 -51 34 -95 17 -44 33 -90 36 -102 2 -12 9 -34 14 -48 5 -14 7
-25 4 -25 -2 0 1 -10 8 -22 6 -13 13 -30 14 -38 1 -8 5 -25 8 -37 3 -13 8 -31
10 -40 3 -10 11 -43 19 -73 14 -52 30 -129 42 -195 3 -16 7 -39 9 -50 13 -73
21 -135 30 -239 3 -38 7 -71 10 -74 3 -2 1 -13 -5 -23 -5 -11 -6 -19 -1 -19
15 0 4 -346 -13 -400 -4 -11 15 -27 60 -53 156 -90 289 -262 340 -439 9 -32
19 -58 22 -58 7 0 -5 221 -17 292 -10 60 -19 112 -24 133 -11 44 -20 72 -25
80 -3 6 -6 17 -8 25 -1 8 -6 23 -11 35 -5 11 -19 43 -32 70 -37 83 -77 197
-85 245 -12 66 -13 240 -3 280 10 41 39 110 53 128 77 101 179 155 317 168 40
4 78 7 83 6 6 -1 30 -3 55 -5 53 -5 124 -35 163 -70 28 -25 28 -26 8 -37 -16
-8 -21 -8 -21 1 0 7 -4 8 -12 2 -7 -5 -20 -9 -28 -8 -39 3 -85 -86 -83 -160 1
-48 14 -153 23 -184 5 -19 7 -38 4 -42 -3 -5 -1 -9 4 -9 5 0 9 -6 9 -12 0 -16
49 -175 63 -203 18 -39 72 -170 74 -180 1 -5 9 -26 18 -45 33 -75 52 -136 74
-235 10 -43 11 -210 2 -243 -5 -19 -11 -42 -13 -52 -6 -32 -43 -104 -77 -151
-67 -92 -163 -154 -280 -177 -50 -10 -210 -8 -227 2 -6 4 -13 -9 -17 -31 -3
-21 -9 -54 -13 -73 -13 -66 -18 -63 124 -65 147 -2 192 -16 238 -77 26 -34 62
-127 53 -136 -3 -2 -1 -13 5 -23 5 -11 6 -19 2 -19 -7 0 -9 -67 -3 -87 1 -5 2
-12 0 -18 -6 -32 -5 -107 2 -111 5 -3 6 -10 2 -15 -9 -15 -9 -132 0 -147 4 -6
4 -17 0 -24 -10 -16 -12 -78 -3 -84 4 -2 4 -17 0 -32 -8 -33 -7 -84 2 -99 4
-6 4 -14 -1 -17 -9 -5 -9 -47 0 -62 3 -5 2 -18 -2 -29 -4 -11 -4 -32 1 -47 4
-15 4 -30 0 -32 -4 -3 -6 -25 -5 -49 2 -43 0 -47 -73 -118 l-76 -74 -236 0
c-130 -1 -244 1 -253 3 -14 3 -16 12 -12 41 15 95 98 191 217 249 l66 33 0
198 1 198 -243 1 c-133 1 -249 3 -257 5 -49 15 -60 20 -60 29 0 5 -4 7 -9 4
-14 -9 -114 104 -159 179 -22 39 -55 106 -72 150 -17 44 -35 90 -40 102 -8 20
-14 22 -62 17 -48 -5 -102 -11 -120 -13 -12 -2 39 -120 75 -173 10 -16 15 -28
11 -28 -3 0 -2 -6 3 -12 6 -7 36 -62 68 -123 32 -60 66 -124 76 -142 l19 -31
-38 -39 c-22 -21 -106 -101 -187 -178 -82 -77 -187 -176 -233 -221 l-84 -81
-1 -74 0 -75 -293 0 -294 0 0 23 c0 69 92 162 232 232 24 12 65 55 268 274 25
26 64 68 87 93 53 56 66 79 57 106 -12 37 -29 48 -165 94 -72 24 -152 58 -177
76 -102 68 -203 202 -228 303 -20 81 -6 248 26 320 5 11 14 31 20 45 29 73
113 151 197 185 75 30 131 37 276 36 118 0 119 0 93 64 -8 18 -12 36 -8 39 3
3 0 6 -6 6 -7 0 -12 6 -12 13 0 11 -50 140 -92 237 -6 14 -12 27 -13 30 -5 15
-41 100 -75 176 -21 49 -21 94 1 94 5 0 9 4 9 9 0 5 36 61 79 125 44 64 78
116 75 116 -3 0 -55 -32 -116 -71 l-110 -71 -96 17 c-54 10 -108 20 -122 22
-14 3 -34 6 -45 8 -11 2 -45 8 -75 14 -30 6 -66 12 -80 15 -14 2 -36 7 -50 10
-14 3 -41 8 -60 11 -50 7 -79 13 -88 19 -4 2 -15 -36 -25 -86 -34 -172 -87
-272 -162 -308 -24 -12 -52 -21 -62 -22 -22 0 -64 9 -71 16 -7 8 -4 402 3 448
4 23 16 61 26 85 10 24 17 44 16 46 -4 5 72 87 106 114 14 12 55 31 112 54 84
33 248 49 511 49 62 0 94 21 97 65 l2 29 -123 -2 c-68 -1 -127 -4 -132 -7 -5
-3 -12 -1 -15 5 -5 8 -12 7 -23 -2 -13 -11 -14 -11 -7 2 7 12 6 13 -6 4 -31
-25 -100 5 -159 67 -8 9 -53 47 -100 85 -47 38 -96 79 -110 91 -14 13 -32 23
-40 24 -8 1 -28 3 -45 5 -16 2 -50 6 -75 8 -141 13 -238 64 -267 142 -15 39
-24 104 -14 104 5 0 7 11 6 25 -2 14 1 25 6 25 6 0 8 4 5 9 -9 14 28 16 269
14 228 -2 272 -4 290 -15 6 -3 25 -9 43 -13 17 -3 32 -11 32 -16 0 -5 6 -9 14
-9 23 0 231 -120 355 -205 73 -49 116 -73 120 -66 11 16 4 140 -10 186 -29
100 -58 154 -112 204 -56 53 -65 61 -77 61 -5 0 -10 4 -10 8 0 4 -17 14 -37
21 -125 44 -292 140 -293 169 0 6 -4 12 -9 12 -11 0 -21 38 -15 55 7 17 11 16
187 -46 155 -54 171 -55 160 -5 -19 83 -53 110 -232 183 -127 52 -191 83 -191
94 0 4 -6 14 -14 21 -23 24 -42 72 -39 103 6 71 0 66 72 60 36 -4 77 -8 91
-10 14 -2 61 -7 105 -10 44 -4 87 -9 96 -10 10 -2 27 8 40 21 68 73 173 98
274 66 28 -9 52 -19 55 -22 6 -7 128 -70 135 -70 3 0 3 12 -1 28 -3 15 -7 41
-9 57 -4 32 -13 95 -20 135 -3 14 -7 52 -10 86 -3 33 -8 71 -10 84 -9 44 10
51 46 17z m-1846 -243 c29 -8 58 -52 57 -85 0 -16 -10 -43 -22 -59 l-22 -31
-1 -918 0 -919 189 -192 c104 -105 240 -243 303 -307 l114 -115 3 -98 c2 -93
1 -98 -19 -102 -12 -2 -33 -1 -47 2 -25 5 -26 8 -25 79 l0 73 -123 127 c-287
293 -432 440 -441 445 -5 3 -70 -56 -144 -132 -75 -75 -202 -205 -284 -288
l-148 -151 0 -75 1 -76 -31 -4 c-60 -7 -61 -6 -61 99 l0 97 220 223 c122 123
220 223 219 223 -1 0 37 38 85 85 l86 85 1 925 c0 737 -3 926 -13 930 -7 2
-17 17 -24 32 -33 81 38 152 127 127z m-789 -2874 c2 -77 30 -148 62 -156 12
-4 22 -9 22 -14 0 -11 103 -5 127 8 33 18 56 76 57 141 l1 57 479 -1 479 0 3
-57 c5 -113 48 -157 148 -154 48 2 59 9 104 71 8 11 15 61 16 111 l0 30 148
-1 c136 -1 150 -2 169 -22 48 -48 17 -152 -52 -175 -12 -4 -14 -74 -16 -409
-1 -352 -4 -424 -13 -449 -1 -3 -2 -8 -2 -11 4 -24 -47 -170 -88 -254 -127
-264 -359 -461 -632 -539 -58 -16 -126 -28 -168 -29 -38 -1 -70 -6 -70 -10 0
-5 -4 -5 -10 -2 -5 3 -45 8 -87 10 -43 2 -100 9 -128 15 -27 7 -54 13 -60 14
-81 17 -263 106 -287 141 -4 5 -8 6 -8 2 0 -17 -135 107 -211 193 -66 75 -145
218 -179 325 -12 39 -25 77 -28 85 -3 8 -6 20 -6 25 -16 109 -20 210 -20 518
l-1 367 -31 19 c-73 44 -79 155 -10 180 10 4 80 7 155 7 l136 -1 1 -35z"/>
<path d="M2401 8775 c-42 -14 -87 -66 -95 -109 -23 -119 99 -217 204 -165 64
32 92 84 83 156 -12 94 -102 149 -192 118z"/>
<path d="M2390 8184 c-123 -54 -133 -234 -16 -292 24 -12 57 -22 75 -22 108 0
185 110 151 216 -12 38 -71 104 -94 104 -6 1 -27 3 -46 5 -19 3 -50 -2 -70
-11z"/>
<path d="M4785 8715 c-5 -2 -22 -6 -37 -9 -41 -9 -86 -59 -118 -130 -37 -80
-44 -126 -45 -261 0 -113 6 -171 24 -217 5 -14 7 -29 4 -32 -4 -3 -1 -6 5 -6
7 0 12 -7 12 -15 0 -30 46 -89 94 -120 53 -35 146 -14 186 42 14 19 31 41 38
49 7 8 11 14 8 14 -3 0 2 17 10 37 9 20 18 46 20 57 2 12 7 35 11 51 14 64 8
249 -11 320 -32 122 -94 203 -166 218 -14 3 -29 4 -35 2z"/>
<path d="M3993 6819 c-6 -6 -17 -12 -24 -13 -8 -1 -40 -15 -73 -29 -32 -15
-64 -28 -70 -29 -22 -4 189 -13 216 -9 l27 3 -22 39 c-24 42 -39 53 -54 38z"/>
<path d="M2335 4120 c3 -5 8 -10 11 -10 2 0 4 5 4 10 0 6 -5 10 -11 10 -5 0
-7 -4 -4 -10z"/>
<path d="M7076 6805 c-9 -13 -16 -29 -16 -35 0 -5 -4 -10 -10 -10 -5 0 -10 -4
-10 -10 0 -6 49 -10 128 -10 111 0 124 2 102 13 -14 8 -34 16 -45 19 -11 3
-46 17 -77 31 l-56 26 -16 -24z"/>
</g>
</svg>
