    <svg
      xmlns="http://www.w3.org/2000/svg"
      fill="white"
      fillRule="evenodd"
      strokeLinejoin="round"
      strokeMiterlimit="2"
      clipRule="evenodd"
      width="200"
      height="75"
      viewBox="0 0 971 399"
    >
      <g>
        <path
          d="M222.545 68.643H298.81V267.092H222.545z"
          transform="translate(0 62.583)"
        ></path>
        <path
          d="M222.545 282.667H298.81V328.318H222.545z"
          transform="translate(0 -212.667)"
        ></path>
        <path
          fillRule="nonzero"
          d="M0 45.92h-60.958v76.265H76.265v-198.45H0V45.92z"
          transform="translate(130.974 207.491)"
        ></path>
        <path
          fillRule="nonzero"
          d="M0 45.92V-76.265h-76.264v198.45H61.227V45.92H0z"
          transform="translate(390.381 207.491)"
        ></path>
        <path
          fillRule="nonzero"
          d="M0 35.368c1.862 4.243 3.947 5.806 6.7 5.806h1.34V-3.274L5.732-6.4h-7.817v-2.83h28.218v2.83h-4.542l-2.904 3.126v33.428c0 9.753-6.922 14.444-15.412 14.444h-.744c-2.68 0-5.061-.445-7.073-1.339-2.234-1.041-3.946-2.754-5.138-5.138L0 35.368z"
          transform="translate(535.655 140.423)"
        ></path>
        <path
          fillRule="nonzero"
          d="M0-36.703l14.368-.745v25.538c0 4.393 1.861 6.477 4.841 6.477 2.977 0 4.539-1.639 6.923-4.096v-21.963l-2.158-2.384h-2.308v-2.827l14.518-.745v32.015l2.158 2.381h3.202v2.829L26.132.523l.596-6.85h-.15C23.08-1.489 19.133.745 15.188.745c-6.925 0-10.87-4.691-10.87-11.614v-20.623l-2.16-2.384H0v-2.827z"
          transform="translate(564.849 184.277)"
        ></path>
        <path
          fillRule="nonzero"
          d="M0-38.416c2.308 0 4.17.297 5.583.52l2.161.448h3.498v12.805H9.008l-.892-1.935c-2.384-5.138-5.287-8.266-9.456-8.266-2.308 0-3.648 1.49-3.648 3.648 0 7.075 18.91 6.477 18.91 20.475C13.922-3.574 7.595 0 1.936 0-.522 0-3.126-.223-5.211-.445c-1.267-.15-2.384-.3-3.501-.523h-3.425v-14.145h2.235l1.489 2.531C-5.064-6.923-1.936-3.87 2.902-3.87c2.904 0 3.725-1.564 3.725-3.352 0-7.967-18.986-7.369-18.986-21.295 0-6.401 5.808-9.899 12.359-9.899"
          transform="translate(623.376 185.022)"
        ></path>
        <path
          fillRule="nonzero"
          d="M0-27.619l10.721-9.829h2.829v9.829h8.489v3.199H13.55V3.202h8.489v.822c-2.457 3.87-6.182 5.805-10.349 5.805-5.362 0-8.189-3.348-8.189-9.008v-24.868L0-25.164v-2.455z"
          transform="translate(641.995 175.193)"
        ></path>
        <path
          fillRule="nonzero"
          d="M0-52.86c3.053 0 5.51 2.382 5.51 5.583A5.497 5.497 0 010-41.767c-3.202 0-5.586-2.457-5.586-5.51 0-3.201 2.384-5.583 5.586-5.583m-10.424 16.38l15.112-.745v32.014l2.235 2.382h3.275V0h-20.549v-2.829h2.906l2.085-2.382v-26.058l-2.161-2.384h-2.903v-2.827z"
          transform="translate(676.994 184.054)"
        ></path>
        <path
          fillRule="nonzero"
          d="M0-38.416c4.914 0 11.987 2.681 11.987 8.188 0 1.266-.373 2.755-.745 3.65h-9.68v-3.053c0-3.65-1.486-4.841-3.498-4.841-3.052 0-7.146 2.904-7.146 12.433 0 9.756 5.807 13.327 10.422 13.327 4.469 0 7.893-2.381 9.902-5.36l1.713.745C10.348-4.914 5.659 0-2.085 0c-10.422 0-16.526-9.008-16.526-18.538 0-10.497 6.401-19.878 18.611-19.878"
          transform="translate(709.384 185.022)"
        ></path>
        <path
          fillRule="nonzero"
          d="M0-14.148v-2.753c0-3.947-2.158-5.436-4.839-5.436-2.753 0-5.882 2.011-6.849 8.189H0zm-4.539-12.134c8.635 0 13.699 5.434 13.699 11.39v3.501l-.894.891h-20.25v.595C-11.984-.149-6.7 3.422-1.34 3.422c4.99 0 8.116-1.859 10.424-5.509l1.713.745C8.189 7.073 3.129 12.134-4.615 12.134c-10.944 0-16.528-9.008-16.528-18.538 0-10.497 6.848-19.878 16.604-19.878"
          transform="translate(747.808 172.888)"
        ></path>
        <path
          fillRule="nonzero"
          d="M0 47.202h4.542l2.903-3.126V3.126L4.542 0H0v-2.83h25.909V0h-4.615l-2.829 3.126v40.95l2.829 3.126h4.615v2.83H0v-2.83z"
          transform="translate(528.656 206.529)"
        ></path>
        <path
          fillRule="nonzero"
          d="M0 31.79h2.68l2.161-2.381V3.35L2.68.965H0v-2.827l14.89-.744-.595 6.478h.149C17.2-.299 21.145-2.83 25.836-2.83c7.445 0 11.315 4.69 11.315 11.613v20.626l2.235 2.381h2.607v2.83H22.484v-2.83h2.534l2.082-2.381V9.827c0-5.583-2.753-6.477-5.135-6.477-2.384 0-4.692 1.639-7.075 4.093v21.966l2.085 2.381h2.457v2.83H0v-2.83z"
          transform="translate(558.964 221.941)"
        ></path>
        <path
          fillRule="nonzero"
          d="M0 31.79h2.68l2.158-2.381V3.35L2.68.965H0v-2.827l14.89-.744-.595 6.478h.149C17.197-.299 21.145-2.83 25.833-2.83c7.445 0 11.318 4.69 11.318 11.613v20.626l2.233 2.381h2.606v2.83H22.484v-2.83h2.531l2.085-2.381V9.827c0-5.583-2.753-6.477-5.137-6.477-2.382 0-4.692 1.639-7.073 4.093v21.966l2.085 2.381h2.457v2.83H0v-2.83z"
          transform="translate(604.39 221.941)"
        ></path>
        <path
          fillRule="nonzero"
          d="M0 30.524c5.213 0 6.181-5.806 6.181-12.655 0-7.372-2.308-17.871-8.339-17.871-4.692 0-6.328 5.51-6.328 12.51 0 7.519 2.754 18.016 8.486 18.016M-1.19-3.947c10.72 0 18.241 7.67 18.241 18.986 0 11.019-7.671 19.432-18.019 19.432-11.019 0-18.315-8.19-18.315-19.506 0-10.946 7.595-18.912 18.093-18.912"
          transform="translate(669.617 223.058)"
        ></path>
        <path
          fillRule="nonzero"
          d="M0-37.227h18.837v2.827h-2.903l-2.085 3.13 8.041 19.133h.296l7.298-18.315-2.979-3.948h-2.83v-2.827h13.403v2.085l-2.084 2.233L20.623 0h-4.542L2.158-32.686 0-35.142v-2.085z"
          transform="translate(690.697 257.306)"
        ></path>
        <path
          fillRule="nonzero"
          d="M0 26.354c2.085 0 4.243-1.041 6.401-3.498v-9.902l-1.636.298c-5.064 1.118-8.117 4.317-8.117 8.191 0 2.68 1.267 4.911 3.352 4.911M2.531 9.751l3.87-.445V2.902c0-4.243-1.712-5.285-3.87-5.285-2.159 0-4.17 1.936-4.17 4.913v4.169h-9.53c-.296-.519-.445-1.49-.445-2.903 0-6.775 8.858-9.828 14.218-9.828 10.723 0 13.849 4.913 13.849 10.647v22.338l2.158 2.38h1.939v2.085l-14.668.745.818-5.583h-.149C2.977 30.747 0 32.386-4.17 32.386c-4.243 0-9.529-1.862-9.529-9.457 0-7.592 6.923-11.984 16.23-13.178"
          transform="translate(745.13 225.142)"
        ></path>
        <path
          fillRule="nonzero"
          d="M0-27.621l10.721-9.829h2.829v9.829h8.486v3.201H13.55V3.202h8.486v.821c-2.457 3.871-6.178 5.806-10.348 5.806-5.36 0-8.19-3.349-8.19-9.009v-24.868L0-25.166v-2.455z"
          transform="translate(769.335 247.7)"
        ></path>
        <path
          fillRule="nonzero"
          d="M0-52.862c3.053 0 5.51 2.382 5.51 5.583A5.497 5.497 0 010-41.769c-3.201 0-5.583-2.457-5.583-5.51 0-3.201 2.382-5.583 5.583-5.583m-10.421 16.38l15.113-.744v32.015L6.926-2.83h3.275V0h-20.549v-2.83h2.904l2.085-2.381V-31.27l-2.16-2.385h-2.902v-2.827z"
          transform="translate(804.331 256.561)"
        ></path>
        <path
          fillRule="nonzero"
          d="M0 30.524c5.213 0 6.181-5.806 6.181-12.655 0-7.372-2.308-17.871-8.339-17.871-4.692 0-6.328 5.51-6.328 12.51 0 7.519 2.754 18.016 8.486 18.016M-1.19-3.947c10.72 0 18.241 7.67 18.241 18.986 0 11.019-7.671 19.432-18.019 19.432-11.019 0-18.315-8.19-18.315-19.506 0-10.946 7.595-18.912 18.093-18.912"
          transform="translate(837.393 223.058)"
        ></path>
        <path
          fillRule="nonzero"
          d="M0 31.79h2.681l2.158-2.381V3.35L2.681.965H0v-2.827l14.891-.744-.596 6.478h.149c2.754-4.171 6.701-6.702 11.39-6.702 7.445 0 11.318 4.69 11.318 11.613v20.626l2.232 2.381h2.606v2.83H22.485v-2.83h2.531l2.085-2.381V9.827c0-5.583-2.754-6.477-5.138-6.477-2.381 0-4.692 1.639-7.072 4.093v21.966l2.085 2.381h2.457v2.83H0v-2.83z"
          transform="translate(858.993 221.941)"
        ></path>
        <path
          fillRule="nonzero"
          d="M0 47.2h4.542l2.903-3.126V3.125L4.542-.001H0V-2.83h26.877V.146L20.772.072l-2.68 3.053v43.181h11.542L41.321 33.65h1.34l-3.348 16.38H0V47.2z"
          transform="translate(528.656 279.303)"
        ></path>
        <path
          fillRule="nonzero"
          d="M0 26.352c2.085 0 4.243-1.041 6.401-3.498v-9.902l-1.635.298c-5.065 1.118-8.118 4.317-8.118 8.191 0 2.68 1.267 4.911 3.352 4.911M2.531 9.749l3.87-.445V2.9c0-4.243-1.712-5.284-3.87-5.284-2.158 0-4.17 1.935-4.17 4.912v4.169h-9.53c-.296-.519-.445-1.49-.445-2.903 0-6.774 8.858-9.826 14.218-9.826 10.723 0 13.849 4.911 13.849 10.645v22.338l2.158 2.38h1.939v2.085l-14.667.745.817-5.583h-.149C2.977 30.745 0 32.384-4.17 32.384c-4.242 0-9.529-1.862-9.529-9.457 0-7.592 6.923-11.984 16.23-13.178"
          transform="translate(587.781 297.917)"
        ></path>
        <path
          fillRule="nonzero"
          d="M0 46.831c4.393 0 7.223-4.246 7.223-13.55 0-9.307-2.83-14.967-7.892-14.967-2.457 0-4.243.819-6.254 2.384v21.145c1.712 3.275 3.724 4.988 6.923 4.988M-21.291-3.126l14.219-.745v20.473h.149c2.903-2.307 5.583-4.316 9.68-4.316 9.453 0 14.889 7.891 14.889 17.866 0 11.392-6.477 20.55-18.166 20.55-8.785 0-12.731-2.158-16.455-4.319V1.34l-2.158-2.381h-2.158v-2.085z"
          transform="translate(631.566 279.599)"
        ></path>
      </g>
    </svg>